<svg width="39" height="40" viewBox="0 0 39 40" fill="none" xmlns="http://www.w3.org/2000/svg">
<g filter="url(#filter0_ii_1_20)">
<g clip-path="url(#clip0_1_20)">
<rect y="0.5" width="39" height="39" rx="10" fill="#2563EB"/>
<g filter="url(#filter1_di_1_20)">
<path fill-rule="evenodd" clip-rule="evenodd" d="M22.381 9.59146C20.7862 10.2522 18.4846 10.2522 16.8899 9.59146C15.5942 9.05459 14.1448 9.0048 12.8075 9.56737C9.98543 10.7545 8.71966 14.2239 9.94795 17.3535C9.94822 17.3542 9.94821 17.355 9.94791 17.3557L10.3312 18.1617C11.6269 20.8865 12.6036 23.7428 13.243 26.6775L13.8513 29.4691C14.0618 30.2717 14.8056 30.8333 15.658 30.8333C16.5734 30.8333 17.3534 30.1876 17.4988 29.3094L18.3563 24.1279C18.4573 23.5176 18.9993 23.0689 19.6354 23.0689C20.2716 23.0689 20.8136 23.5176 20.9146 24.1279L21.7721 29.3094C21.9174 30.1876 22.6975 30.8333 23.6129 30.8333C24.4653 30.8333 25.2091 30.2717 25.4196 29.4692L26.0279 26.6775C26.6673 23.7428 27.6439 20.8865 28.9397 18.1617L29.323 17.3557C29.3227 17.355 29.3227 17.3542 29.3229 17.3535C30.5512 14.2239 29.2854 10.7545 26.4633 9.56737C25.126 9.0048 23.6767 9.05459 22.381 9.59146Z" fill="white"/>
</g>
</g>
</g>
<defs>
<filter id="filter0_ii_1_20" x="-2.0348" y="-1.5348" width="43.0696" height="43.0696" filterUnits="userSpaceOnUse" color-interpolation-filters="sRGB">
<feFlood flood-opacity="0" result="BackgroundImageFix"/>
<feBlend mode="normal" in="SourceGraphic" in2="BackgroundImageFix" result="shape"/>
<feColorMatrix in="SourceAlpha" type="matrix" values="0 0 0 0 0 0 0 0 0 0 0 0 0 0 0 0 0 0 127 0" result="hardAlpha"/>
<feOffset dx="2.0348" dy="2.0348"/>
<feGaussianBlur stdDeviation="1.0174"/>
<feComposite in2="hardAlpha" operator="arithmetic" k2="-1" k3="1"/>
<feColorMatrix type="matrix" values="0 0 0 0 1 0 0 0 0 1 0 0 0 0 1 0 0 0 0.2 0"/>
<feBlend mode="normal" in2="shape" result="effect1_innerShadow_1_20"/>
<feColorMatrix in="SourceAlpha" type="matrix" values="0 0 0 0 0 0 0 0 0 0 0 0 0 0 0 0 0 0 127 0" result="hardAlpha"/>
<feOffset dx="-2.0348" dy="-2.0348"/>
<feGaussianBlur stdDeviation="1.0174"/>
<feComposite in2="hardAlpha" operator="arithmetic" k2="-1" k3="1"/>
<feColorMatrix type="matrix" values="0 0 0 0 0 0 0 0 0 0 0 0 0 0 0 0 0 0 0.05 0"/>
<feBlend mode="normal" in2="effect1_innerShadow_1_20" result="effect2_innerShadow_1_20"/>
</filter>
<filter id="filter1_di_1_20" x="-16.4719" y="-2.6293" width="72.2147" height="73.5689" filterUnits="userSpaceOnUse" color-interpolation-filters="sRGB">
<feFlood flood-opacity="0" result="BackgroundImageFix"/>
<feColorMatrix in="SourceAlpha" type="matrix" values="0 0 0 0 0 0 0 0 0 0 0 0 0 0 0 0 0 0 127 0" result="hardAlpha"/>
<feOffset dy="14.1551"/>
<feGaussianBlur stdDeviation="12.9756"/>
<feColorMatrix type="matrix" values="0 0 0 0 0.8375 0 0 0 0 0.201 0 0 0 0 0 0 0 0 0.35 0"/>
<feBlend mode="normal" in2="BackgroundImageFix" result="effect1_dropShadow_1_20"/>
<feBlend mode="normal" in="SourceGraphic" in2="effect1_dropShadow_1_20" result="shape"/>
<feColorMatrix in="SourceAlpha" type="matrix" values="0 0 0 0 0 0 0 0 0 0 0 0 0 0 0 0 0 0 127 0" result="hardAlpha"/>
<feOffset dy="-3.53879"/>
<feGaussianBlur stdDeviation="2.35919"/>
<feComposite in2="hardAlpha" operator="arithmetic" k2="-1" k3="1"/>
<feColorMatrix type="matrix" values="0 0 0 0 1 0 0 0 0 1 0 0 0 0 1 0 0 0 0.25 0"/>
<feBlend mode="normal" in2="shape" result="effect2_innerShadow_1_20"/>
</filter>
<clipPath id="clip0_1_20">
<rect y="0.5" width="39" height="39" rx="10" fill="white"/>
</clipPath>
</defs>
</svg>
